<?xml version="1.0" encoding="utf-8"?>
<!-- Generator: Adobe Illustrator 20.0.0, SVG Export Plug-In . SVG Version: 6.00 Build 0)  -->
<svg version="1.1" id="Layer_1" xmlns="http://www.w3.org/2000/svg" xmlns:xlink="http://www.w3.org/1999/xlink" x="0px" y="0px"
	 viewBox="0 0 60 60" style="enable-background:new 0 0 60 60;" xml:space="preserve">
<style type="text/css">
	.st0{fill:none;stroke:#FFFFFF;stroke-width:2;stroke-miterlimit:10;}
	.st1{fill:#FFFFFF;}
</style>
<g>
	<path class="st0" d="M58,31.2L30.5,3.7C3,31.1,3,31.1,3,31.1"/>
</g>
<g>
	<path class="st1" d="M3.3,41.7v-6.4h1.9c0.7,0,1.2,0.1,1.6,0.4C7.1,36,7.2,36.4,7.2,37c0,0.3-0.1,0.6-0.3,0.9
		c-0.2,0.2-0.4,0.4-0.8,0.5c0.4,0.1,0.7,0.3,0.9,0.5c0.2,0.3,0.4,0.6,0.4,1c0,0.6-0.2,1-0.6,1.3s-0.9,0.5-1.5,0.5H3.3z M3.8,38.2
		h1.5c0.5,0,0.8-0.1,1.1-0.3c0.3-0.2,0.4-0.5,0.4-0.9c0-0.4-0.1-0.7-0.4-0.9c-0.3-0.2-0.7-0.3-1.2-0.3H3.8V38.2z M3.8,38.6v2.6h1.7
		c0.5,0,0.8-0.1,1.1-0.3c0.3-0.2,0.4-0.6,0.4-1c0-0.4-0.1-0.7-0.4-0.9c-0.2-0.2-0.6-0.4-1.1-0.4H3.8z"/>
	<path class="st1" d="M12.3,39.9H9.4l-0.7,1.8H8.1l2.4-6.4h0.5l2.4,6.4h-0.5L12.3,39.9z M9.5,39.4h2.6L10.8,36h0L9.5,39.4z"/>
	<path class="st1" d="M18.8,39.7L18.8,39.7c0,0.7-0.3,1.2-0.7,1.5c-0.4,0.4-0.9,0.6-1.6,0.6c-0.7,0-1.3-0.3-1.7-0.8
		c-0.4-0.5-0.7-1.2-0.7-2v-1c0-0.8,0.2-1.5,0.7-2c0.4-0.5,1-0.8,1.7-0.8c0.7,0,1.2,0.2,1.6,0.5s0.6,0.9,0.7,1.5l0,0h-0.5
		c-0.1-0.5-0.3-0.9-0.5-1.2c-0.3-0.3-0.7-0.4-1.3-0.4c-0.6,0-1,0.2-1.3,0.7c-0.3,0.4-0.5,1-0.5,1.7v1c0,0.7,0.2,1.2,0.5,1.7
		c0.3,0.4,0.8,0.6,1.3,0.6c0.5,0,1-0.1,1.3-0.4c0.3-0.3,0.5-0.7,0.5-1.2H18.8z"/>
	<path class="st1" d="M21.6,38.7h-0.9v3h-0.5v-6.4h0.5v2.9h0.9l2.5-2.9h0.6l0,0l-2.6,3.1l2.8,3.2l0,0h-0.6L21.6,38.7z"/>
	<path class="st1" d="M32.4,35.7h-2.2v6h-0.5v-6h-2.2v-0.4h4.9V35.7z"/>
	<path class="st1" d="M38,39c0,0.8-0.2,1.5-0.7,2c-0.5,0.5-1.1,0.8-1.8,0.8c-0.8,0-1.3-0.3-1.8-0.8c-0.4-0.5-0.7-1.2-0.7-2v-1
		c0-0.8,0.2-1.5,0.7-2s1-0.8,1.8-0.8c0.8,0,1.4,0.3,1.8,0.8c0.5,0.5,0.7,1.2,0.7,2V39z M37.5,38c0-0.7-0.2-1.3-0.5-1.7
		c-0.4-0.4-0.8-0.6-1.5-0.6c-0.6,0-1.1,0.2-1.4,0.6s-0.5,1-0.5,1.7V39c0,0.7,0.2,1.3,0.5,1.7c0.3,0.4,0.8,0.6,1.4,0.6
		c0.6,0,1.1-0.2,1.5-0.6c0.3-0.4,0.5-1,0.5-1.7V38z"/>
	<path class="st1" d="M45.9,35.7h-2.2v6h-0.5v-6h-2.2v-0.4h4.9V35.7z"/>
	<path class="st1" d="M51.5,39c0,0.8-0.2,1.5-0.7,2c-0.5,0.5-1.1,0.8-1.8,0.8c-0.8,0-1.3-0.3-1.8-0.8c-0.4-0.5-0.7-1.2-0.7-2v-1
		c0-0.8,0.2-1.5,0.7-2s1-0.8,1.8-0.8c0.8,0,1.4,0.3,1.8,0.8c0.5,0.5,0.7,1.2,0.7,2V39z M50.9,38c0-0.7-0.2-1.3-0.5-1.7
		c-0.4-0.4-0.8-0.6-1.5-0.6c-0.6,0-1.1,0.2-1.4,0.6S47,37.3,47,38V39c0,0.7,0.2,1.3,0.5,1.7c0.3,0.4,0.8,0.6,1.4,0.6
		c0.6,0,1.1-0.2,1.5-0.6c0.3-0.4,0.5-1,0.5-1.7V38z"/>
	<path class="st1" d="M53.4,39v2.7h-0.5v-6.4H55c0.7,0,1.2,0.2,1.6,0.5c0.4,0.3,0.6,0.8,0.6,1.4c0,0.6-0.2,1-0.6,1.4
		C56.2,38.9,55.7,39,55,39H53.4z M53.4,38.6H55c0.5,0,0.9-0.1,1.2-0.4c0.3-0.3,0.4-0.6,0.4-1c0-0.4-0.1-0.8-0.4-1
		c-0.3-0.3-0.7-0.4-1.2-0.4h-1.7V38.6z"/>
</g>
</svg>
