<?xml version="1.0" encoding="utf-8"?>
<!-- Generator: Adobe Illustrator 20.0.0, SVG Export Plug-In . SVG Version: 6.00 Build 0)  -->
<svg version="1.1" xmlns="http://www.w3.org/2000/svg" xmlns:xlink="http://www.w3.org/1999/xlink" x="0px" y="0px"
	 viewBox="0 0 30 30" style="enable-background:new 0 0 30 30;" xml:space="preserve">
<style type="text/css">
	.st0{fill:#FFFFFF;}
	.st1{fill:none;stroke:#FFFFFF;stroke-width:0.5;stroke-miterlimit:10;}
	.st2{display:none;fill:none;stroke:#FFFFFF;stroke-width:0.5;stroke-miterlimit:10;}
	.st3{display:none;}
	.st4{display:inline;fill:none;stroke:#FFFFFF;stroke-width:0.5;stroke-miterlimit:10;}
	.st5{display:inline;}
	.st6{fill:none;stroke:#FFFFFF;stroke-width:0.75;stroke-miterlimit:10;}
</style>
<g id="Layer_1">
	<g>
		<path class="st0" d="M15,0.8c7.8,0,14.2,6.4,14.2,14.2S22.8,29.2,15,29.2S0.8,22.8,0.8,15S7.2,0.8,15,0.8 M15,0.3
			C6.9,0.3,0.3,6.9,0.3,15S6.9,29.7,15,29.7S29.7,23.1,29.7,15S23.1,0.3,15,0.3L15,0.3z"/>
	</g>
</g>
<g id="Layer_2">
	<g>
		<g>
			<path class="st1" d="M14.2,11.3c0.3,0.4,0.4,0.9,0.4,1.4c0,0.6-0.1,1-0.4,1.3c-0.2,0.2-0.4,0.4-0.7,0.5c0.5,0.2,0.8,0.4,1,0.8
				c0.2,0.4,0.4,0.8,0.4,1.3c0,0.5-0.1,1-0.4,1.5c-0.2,0.3-0.4,0.5-0.6,0.7c-0.3,0.2-0.6,0.4-1,0.5c-0.4,0.1-0.8,0.1-1.3,0.1H7.5
				v-9.1h4.4C13,10.3,13.8,10.7,14.2,11.3z M9.3,11.9v2h2.2c0.4,0,0.7-0.1,1-0.2c0.2-0.2,0.4-0.4,0.4-0.8c0-0.4-0.2-0.7-0.5-0.8
				c-0.3-0.1-0.6-0.1-1.1-0.1H9.3z M9.3,15.4v2.4h2.2c0.4,0,0.7-0.1,0.9-0.2c0.4-0.2,0.6-0.6,0.6-1.1c0-0.5-0.2-0.8-0.6-1
				c-0.2-0.1-0.5-0.2-0.9-0.2H9.3z"/>
			<path class="st1" d="M20.8,12.8c0.5,0.2,0.9,0.5,1.2,1c0.3,0.4,0.5,0.9,0.5,1.4c0,0.3,0.1,0.8,0.1,1.3h-4.9
				c0,0.7,0.3,1.2,0.7,1.4c0.3,0.2,0.6,0.3,1,0.3c0.4,0,0.7-0.1,1-0.3c0.1-0.1,0.3-0.3,0.4-0.5h1.8c0,0.4-0.3,0.8-0.6,1.2
				c-0.6,0.7-1.4,1-2.5,1c-0.9,0-1.7-0.3-2.4-0.8c-0.7-0.6-1-1.5-1-2.7c0-1.2,0.3-2.1,0.9-2.7c0.6-0.6,1.4-0.9,2.4-0.9
				C19.8,12.5,20.3,12.6,20.8,12.8z M18.1,14.4c-0.2,0.3-0.4,0.6-0.5,1h3c0-0.5-0.2-0.8-0.5-1.1c-0.3-0.2-0.6-0.4-1-0.4
				C18.7,14,18.4,14.1,18.1,14.4z"/>
		</g>
		<rect x="16.9" y="11.3" class="st1" width="4.7" height="0.9"/>
	</g>
	<path class="st2" d="M15,8.5c-2.8,0-5,2.4-5,5c0,1.4,0.7,2,2,4.4c1.2,2.1,2.1,3.9,2.1,3.9c0.5,0.9,1.3,0.9,1.7,0c0,0,1-1.9,2.1-3.9
		c1.3-2.3,2-3,2-4.4C20,10.9,17.8,8.5,15,8.5z M15,16.5c-1.7,0-3-1.3-3-3s1.3-3,3-3c1.7,0,3,1.3,3,3S16.7,16.5,15,16.5z"/>
	<path class="st2" d="M19.4,23c0.4,0,3.6-2.4,3.6-2.7c0-0.3-3.6-2.6-3.9-2.6c-0.3,0-1.3,1.2-1.6,1.4c-0.3,0.1-2,0.1-4-1.9
		c-2-1.9-2.6-4.2-2.6-4.5c0-0.4,1.6-1.4,1.7-1.7c0-0.3-2.1-4.1-2.5-4.1C9.7,7,7,10.3,7,10.6c0,0.3,0.2,3.8,4.7,8.2
		C16.2,23.3,19.1,23,19.4,23z"/>
	<g class="st3">
		<rect x="6.8" y="9.7" class="st4" width="16.3" height="9.8"/>
		<polyline class="st4" points="6.8,9.7 15,15 23.2,9.7 		"/>
	</g>
	<path class="st2" d="M17.5,15.5c0.3,0,0.5,0.1,0.7,0.4c0.2,0.3,0.3,0.6,0.3,1c0,0.4-0.1,0.7-0.3,1c-0.2,0.3-0.4,0.4-0.7,0.4
		c-0.3,0-0.5-0.1-0.7-0.4c-0.2-0.3-0.3-0.6-0.3-1c0-0.4,0.1-0.7,0.3-1C17,15.7,17.2,15.5,17.5,15.5z M21,11.9c0.8,0.8,1.2,1.8,1.2,3
		c0,0.8-0.1,1.5-0.3,2.1c-0.2,0.6-0.4,1.1-0.7,1.5c-0.3,0.4-0.6,0.7-1,1c-0.4,0.3-0.8,0.5-1.1,0.6s-0.7,0.2-1.1,0.3
		c-0.4,0.1-0.7,0.1-1,0.1c-0.2,0-0.4,0-0.7,0c-0.1,0-0.2,0-0.6,0c-0.3,0-0.6,0-0.8,0s-0.5,0-0.8,0c-0.3,0-0.5,0-0.6,0
		c-0.3,0-0.5,0-0.7,0c-0.2,0-0.5-0.1-1-0.1c-0.4-0.1-0.8-0.2-1.1-0.3c-0.3-0.1-0.7-0.3-1.1-0.6c-0.4-0.3-0.7-0.6-1-1
		c-0.3-0.4-0.5-0.9-0.7-1.5c-0.2-0.6-0.3-1.3-0.3-2.1c0-1.2,0.4-2.2,1.2-3c-0.1,0-0.1-0.5,0-1.2C9,9.8,9.2,9.1,9.5,8.4
		c1,0.1,2.1,0.6,3.6,1.6c0.5-0.1,1.1-0.2,2-0.2c0.9,0,1.5,0.1,2,0.2c0.6-0.4,1.3-0.8,1.8-1.1c0.6-0.3,1-0.4,1.3-0.5l0.4-0.1
		c0.3,0.7,0.4,1.4,0.5,2.2C21.1,11.4,21.1,11.8,21,11.9L21,11.9z M15,19.9c1.7,0,3-0.2,3.9-0.6c0.9-0.4,1.3-1.3,1.3-2.6
		c0-0.7-0.3-1.4-0.8-1.9c-0.3-0.3-0.6-0.4-1-0.5c-0.4-0.1-1-0.1-1.8,0c-0.8,0.1-1.3,0.1-1.6,0.1c-0.4,0-0.8,0-1.4-0.1
		c-0.5,0-1-0.1-1.2-0.1c-0.3,0-0.6,0-1,0.1c-0.4,0.1-0.6,0.2-0.9,0.4c-0.5,0.5-0.8,1.1-0.8,1.9c0,1.3,0.4,2.1,1.3,2.6
		C11.9,19.7,13.2,19.9,15,19.9L15,19.9z M12.5,15.5c0.3,0,0.5,0.1,0.7,0.4c0.2,0.3,0.3,0.6,0.3,1c0,0.4-0.1,0.7-0.3,1
		c-0.2,0.3-0.4,0.4-0.7,0.4c-0.3,0-0.5-0.1-0.7-0.4c-0.2-0.3-0.3-0.6-0.3-1c0-0.4,0.1-0.7,0.3-1C12,15.7,12.2,15.5,12.5,15.5z"/>
	<g class="st3">
		<g class="st5">
			<path class="st6" d="M7,22.6h3v-12H7V22.6z M19,10.6c-2.6,0-3.8,1.9-4,2v-2h-3v12h3v-7c0-0.3,0.6-2.3,3-2c1.3,0.1,2,1.8,2,2v7
				l3,0v-8.3C22.9,13.1,22.3,10.7,19,10.6z M8.5,6.6C7.7,6.6,7,7.3,7,8.1s0.7,1.5,1.5,1.5c0.8,0,1.5-0.7,1.5-1.5S9.3,6.6,8.5,6.6z"
				/>
		</g>
	</g>
</g>
</svg>
